<?xml version="1.0" encoding="UTF-8"?>
<svg id="_レイヤー_2" data-name="レイヤー_2" xmlns="http://www.w3.org/2000/svg" xmlns:xlink="http://www.w3.org/1999/xlink" viewBox="0 0 387.88 204.9">
  <defs>
    <style>
      .cls-1 {
        letter-spacing: .25em;
      }

      .cls-2 {
        fill: #a6cb81;
      }

      .cls-3 {
        letter-spacing: 0em;
      }

      .cls-4 {
        font-size: 27px;
      }

      .cls-4, .cls-5 {
        fill: #231815;
        font-family: Corporate-Logo-Rounded-Bold-ver3-90ms-RKSJ-H, 'Corporate Logo Rounded ver3';
      }

      .cls-4, .cls-5, .cls-6 {
        font-weight: 700;
      }

      .cls-7 {
        fill: #fff;
      }

      .cls-8, .cls-9 {
        fill: none;
      }

      .cls-10 {
        clip-path: url(#clippath-1);
      }

      .cls-5 {
        font-size: 24px;
      }

      .cls-6 {
        fill: #00595c;
        font-family: 'AB-karuta_bold-90ms-RKSJ-H', AB-karuta_bold;
        font-size: 9.76px;
      }

      .cls-9 {
        stroke: #fff;
        stroke-miterlimit: 10;
        stroke-width: .92px;
      }

      .cls-11 {
        clip-path: url(#clippath-2);
      }

      .cls-12 {
        fill: #f9d58a;
      }

      .cls-13 {
        clip-path: url(#clippath);
      }
    </style>
    <clipPath id="clippath">
      <rect class="cls-8" x="2.02" y="24.86" width="136.72" height="96.68"/>
    </clipPath>
    <clipPath id="clippath-1">
      <rect class="cls-8" x="2.02" y="24.86" width="136.72" height="96.68"/>
    </clipPath>
    <clipPath id="clippath-2">
      <rect class="cls-8" x="2.02" y="24.86" width="136.72" height="96.68"/>
    </clipPath>
  </defs>
  <g id="_レイヤー_1-2" data-name="レイヤー_1">
    <path class="cls-12" d="M321.2,0H66.67C29.85,0,0,29.85,0,66.67h0c0,12.74,3.58,24.65,9.78,34.77l59.73,103.46,31.14-53.94c6.29-10.89,17.91-17.61,30.49-17.61h190.06c36.82,0,66.67-29.85,66.67-66.67h0C387.88,29.85,358.03,0,321.2,0Z"/>
    <circle class="cls-7" cx="72.73" cy="69.52" r="57.22"/>
    <g class="cls-13">
      <g class="cls-10">
        <path class="cls-2" d="M128.54,77.16H61.71c0-.57.46-1.03,1.03-1.03h66.83c0,.57-.46,1.03-1.03,1.03"/>
        <path class="cls-2" d="M109.08,76.49h5.39v-12.95h-5.39v12.95ZM113.19,64.84h.97v.69h-.97v-.69ZM114.16,66.5h-.97v-.69h.97v.69ZM113.19,66.78h.97v.69h-.97v-.69ZM114.16,69.41h-.97v-.69h.97v.69ZM114.16,70.37h-.97v-.69h.97v.69ZM111.91,64.84h.97v.69h-.97v-.69ZM112.89,66.5h-.97v-.69h.97v.69ZM111.91,66.78h.97v.69h-.97v-.69ZM112.89,69.41h-.97v-.69h.97v.69ZM112.89,70.37h-.97v-.69h.97v.69ZM110.65,64.84h.97v.69h-.97v-.69ZM111.62,66.5h-.97v-.69h.97v.69ZM110.65,66.78h.97v.69h-.97v-.69ZM111.62,69.41h-.97v-.69h.97v.69ZM111.62,70.37h-.97v-.69h.97v.69ZM109.38,64.84h.97v.69h-.97v-.69ZM110.35,66.5h-.97v-.69h.97v.69ZM109.38,66.78h.97v.69h-.97v-.69ZM110.35,69.41h-.97v-.69h.97v.69ZM110.35,70.37h-.97v-.69h.97v.69ZM109.38,70.65h.97v.69h-.97v-.69ZM109.38,72.59h.97v.69h-.97v-.69ZM110.35,75.22h-.97v-.69h.97v.69ZM110.35,74.25h-.97v-.69h.97v.69ZM110.35,72.31h-.97v-.69h.97v.69ZM110.35,68.44h-.97v-.69h.97v.69ZM110.35,64.56h-.97v-.69h.97v.69ZM110.65,70.65h.97v.69h-.97v-.69ZM110.65,72.59h.97v.69h-.97v-.69ZM111.62,75.22h-.97v-.69h.97v.69ZM111.62,74.25h-.97v-.69h.97v.69ZM111.62,72.31h-.97v-.69h.97v.69ZM111.62,68.44h-.97v-.69h.97v.69ZM111.62,64.56h-.97v-.69h.97v.69ZM111.91,70.65h.97v.69h-.97v-.69ZM111.91,72.59h.97v.69h-.97v-.69ZM112.89,75.22h-.97v-.69h.97v.69ZM112.89,74.25h-.97v-.69h.97v.69ZM112.89,72.31h-.97v-.69h.97v.69ZM112.89,68.44h-.97v-.69h.97v.69ZM112.89,64.56h-.97v-.69h.97v.69ZM113.19,70.65h.97v.69h-.97v-.69ZM113.19,72.59h.97v.69h-.97v-.69ZM114.16,75.22h-.97v-.69h.97v.69ZM114.16,74.25h-.97v-.69h.97v.69ZM114.16,72.31h-.97v-.69h.97v.69ZM114.16,68.44h-.97v-.69h.97v.69ZM114.16,64.56h-.97v-.69h.97v.69Z"/>
        <rect class="cls-2" x="87.44" y="73.4" width=".14" height="1.52"/>
        <rect class="cls-2" x="86.75" y="74.09" width="1.52" height=".14"/>
        <path class="cls-2" d="M86.16,76.29h4.44v-3.72h-4.44v3.72ZM88.27,74.92h-1.52v-1.52h1.52v1.52ZM90.01,76.08h-1.26v-2.68h1.26v2.68Z"/>
        <path class="cls-2" d="M89.94,74.68c0,.06-.05.11-.11.11s-.11-.05-.11-.11.05-.11.11-.11.11.05.11.11"/>
        <polygon class="cls-2" points="88.39 70.11 85.64 72.94 91.13 72.94 88.39 70.11"/>
        <rect class="cls-2" x="117.42" y="71.62" width="10.54" height="4.5"/>
        <path class="cls-2" d="M127.96,68.11c-4.43,2.77-10.54,3.51-10.54,3.51.16.7,3.84.76,10.54,0"/>
        <path class="cls-2" d="M124.87,62.65v1.34h-4.35v-1.34h-2.65v8.34h.19c1.6-.26,5.96-1.11,9.47-3.15v-5.19h-2.65ZM120.13,69.62h-1.95v-.28h1.95v.28ZM120.13,69.05h-1.95v-.28h1.95v.28ZM120.13,68.48h-1.95v-.28h1.95v.28ZM120.13,67.9h-1.95v-.28h1.95v.28ZM120.13,67.35h-1.95v-.28h1.95v.28ZM120.13,66.77h-1.95v-.28h1.95v.28ZM120.13,66.2h-1.95v-.28h1.95v.28ZM120.13,65.63h-1.95v-.28h1.95v.28ZM120.13,65.06h-1.95v-.28h1.95v.28ZM120.13,64.49h-1.95v-.28h1.95v.28ZM120.13,63.92h-1.95v-.28h1.95v.28ZM120.13,63.35h-1.95v-.28h1.95v.28ZM122.89,65.74h1.55v.61h-1.55v-.61ZM120.93,65.7h1.55v.61h-1.55v-.61ZM122.48,68.52h-1.55v-.61h1.55v.61ZM122.49,67.44h-1.55v-.61h1.55v.61ZM122.5,65.23h-1.55v-.61h1.55v.61ZM124.44,68.56h-1.55v-.61h1.55v.61ZM124.45,67.47h-1.55v-.61h1.55v.61ZM124.45,65.26h-1.55v-.61h1.55v.61ZM127.15,67.4h-1.95v-.28h1.95v.28ZM127.15,66.82h-1.95v-.28h1.95v.28ZM127.15,66.25h-1.95v-.28h1.95v.28ZM127.15,65.68h-1.95v-.28h1.95v.28ZM127.15,65.11h-1.95v-.28h1.95v.28ZM127.15,64.54h-1.95v-.28h1.95v.28ZM127.15,63.97h-1.95v-.28h1.95v.28ZM127.15,63.4h-1.95v-.28h1.95v.28Z"/>
        <rect class="cls-2" x="94.37" y="69.7" width="2.4" height=".5"/>
        <path class="cls-2" d="M94.37,76.16h11.76v-5.95h-11.76v5.95ZM96.27,76.04h-1.39v-2.24h1.39v2.24ZM105.46,75.12h-8.69v-.94h8.69v.94ZM105.46,73.48h-8.69v-.94h8.69v.94ZM105.46,71.84h-8.69v-.94h8.69v.94Z"/>
      </g>
      <text class="cls-6" transform="translate(15.91 73.37)"><tspan x="0" y="0">コミュニティストリート</tspan></text>
      <g class="cls-11">
        <path class="cls-9" d="M21.38,73.13v-1.63h-3.97v1.63h3.97ZM22.31,73.37h1.74v-7.12h-6.33v1.63h4.59v5.49Z"/>
        <path class="cls-9" d="M34.1,71.69l-6.83-1-.27,1.7,6.83,1.02.27-1.73ZM32.46,69.01l-2.98-.46-.24,1.66,2.96.46.26-1.66ZM33.34,68.33l.27-1.66-5.42-.78-.27,1.66,5.42.78Z"/>
        <path class="cls-9" d="M43.27,73.08v-1.6h-5.98v1.6h5.98ZM42.35,70.7v-3.59h-4.18v1.59h2.44v2h1.74Z"/>
        <path class="cls-9" d="M53.54,72.98v-1.68h-6.95v1.68h6.95ZM52.57,68.03v-1.68h-5v1.68h5Z"/>
        <path class="cls-9" d="M61.38,70.45h-1.74c0,.8-.34,1.39-1.02,1.78l1.1,1.29c.61-.34,1.07-.75,1.32-1.19.24-.44.34-1.07.34-1.87ZM63.43,69.87v-1.64h-7.17v1.64h7.17ZM62.52,67.67v-1.61h-5.34v1.61h5.34Z"/>
        <path class="cls-9" d="M70.77,73.42v-3.39h-1.66v3.39h1.66ZM72.58,68.31l-.7-1.49c-1.59.83-3.35,1.35-5.25,1.54l.29,1.56c2.08-.18,3.95-.71,5.66-1.61Z"/>
        <path class="cls-9" d="M83.2,72.35l-1.74-1.75c.18-.54.27-1.17.27-1.85v-2.52h-5.76v1.64h4v.88c0,.83-.2,1.51-.54,2.05-.34.49-.88.92-1.64,1.34l.93,1.39c.78-.39,1.4-.85,1.85-1.39l1.4,1.39,1.22-1.17Z"/>
        <path class="cls-9" d="M87.75,73.37v-7.39h-1.73v7.39h1.73ZM92.91,68.37c-.98-.44-2.25-.65-3.79-.65h-.41v1.66h.36c1.22,0,2.32.17,3.27.54l.57-1.54Z"/>
        <path class="cls-9" d="M97.45,69.43v-3.2h-1.83v3.2h1.83ZM102.15,69.28v-3.07h-1.85v3.07c0,1.24-.36,2.34-1.12,3.31l1.51.96c.98-1.25,1.46-2.65,1.46-4.27Z"/>
        <path class="cls-9" d="M112.33,70.42v-1.63h-5.69c-.15,0-.29-.05-.44-.13l-.59-.26-.65,1.51.46.26c.27.18.59.24.98.24h5.93Z"/>
        <path class="cls-9" d="M117.04,73.37v-7.39h-1.73v7.39h1.73ZM122.19,68.37c-.98-.44-2.25-.65-3.79-.65h-.41v1.66h.36c1.22,0,2.32.17,3.27.54l.57-1.54Z"/>
      </g>
      <text class="cls-6" transform="translate(15.94 73.42)"><tspan x="0" y="0">コミュニティストリート</tspan></text>
    </g>
    <text class="cls-4" transform="translate(143.49 58.9) scale(1.04 1)"><tspan x="0" y="0">コミュニティストリート</tspan></text>
    <text class="cls-5" transform="translate(257.5 93.64)"><tspan x="0" y="0">2</tspan><tspan class="cls-1" x="14.62" y="0">3</tspan><tspan class="cls-3" x="35.23" y="0">号館前</tspan></text>
  </g>
</svg>